<?xml version="1.0" encoding="utf-8"?>
<!-- Generator: Adobe Illustrator 16.0.3, SVG Export Plug-In . SVG Version: 6.00 Build 0)  -->
<!DOCTYPE svg PUBLIC "-//W3C//DTD SVG 1.1//EN" "http://www.w3.org/Graphics/SVG/1.1/DTD/svg11.dtd">
<svg version="1.1" id="Layer_1" xmlns="http://www.w3.org/2000/svg" xmlns:xlink="http://www.w3.org/1999/xlink" x="0px" y="0px"
	 width="89px" height="89px" viewBox="0 0 89 89" enable-background="new 0 0 89 89" xml:space="preserve">
<path fill="currentColor" d="M39.872,45L55.56,29.313c0.36-0.36,0.36-0.944,0-1.304l-1.738-1.739C53.648,26.097,53.414,26,53.17,26
	c-0.245,0-0.479,0.097-0.651,0.27L34.44,44.348c-0.36,0.36-0.36,0.944,0,1.303l18.079,18.078C52.69,63.902,52.925,64,53.17,64
	c0.244,0,0.479-0.098,0.651-0.271l1.738-1.738c0.36-0.359,0.36-0.943,0-1.304L39.872,45z"/>
</svg>
