<?xml version="1.0" encoding="utf-8"?>
<!-- Generator: Adobe Illustrator 16.0.3, SVG Export Plug-In . SVG Version: 6.00 Build 0)  -->
<!DOCTYPE svg PUBLIC "-//W3C//DTD SVG 1.1//EN" "http://www.w3.org/Graphics/SVG/1.1/DTD/svg11.dtd">
<svg version="1.1" id="Layer_1" xmlns="http://www.w3.org/2000/svg" xmlns:xlink="http://www.w3.org/1999/xlink" x="0px" y="0px"
	 width="32px" height="32px" viewBox="0 0 32 32" enable-background="new 0 0 32 32" xml:space="preserve">
<g>
	<g>
		<path fill="currentColor" d="M30.977,30.297h-11.12c3.813-1.465,6.623-4.966,7.072-9.169h1.091c2.194,0,3.98-1.787,3.98-3.98
			c0-2.194-1.786-3.98-3.98-3.98h-1.837H5.605c-0.449,0-0.812,0.363-0.812,0.811v5.963c0,4.724,2.97,8.756,7.138,10.356H0.811
			C0.363,30.297,0,30.66,0,31.108c0,0.446,0.363,0.811,0.811,0.811h30.166c0.448,0,0.812-0.364,0.812-0.811
			C31.788,30.66,31.425,30.297,30.977,30.297z M30.378,17.147c0,1.301-1.058,2.357-2.358,2.357h-1.026v-4.716h1.026
			C29.32,14.789,30.378,15.846,30.378,17.147z M6.416,19.94v-5.151h18.956v5.151c0,5.227-4.252,9.479-9.478,9.479
			S6.416,25.167,6.416,19.94z"/>
		<path fill="currentColor" d="M9.63,5.021c0.942,0.398,1.487,0.86,1.534,1.3c0.069,0.651-0.83,1.503-1.275,1.814
			C9.521,8.39,9.43,8.894,9.684,9.262c0.158,0.229,0.411,0.35,0.668,0.35c0.158,0,0.319-0.046,0.46-0.144
			c0.221-0.152,2.148-1.537,1.966-3.313c-0.111-1.089-0.958-1.974-2.497-2.623C9.878,3.352,9.426,2.961,9.43,2.802
			c0-0.004,0.092-0.489,1.822-1.151c0.418-0.161,0.628-0.63,0.468-1.048c-0.16-0.417-0.628-0.627-1.048-0.467
			C8.777,0.86,7.84,1.717,7.809,2.752C7.767,4.135,9.422,4.926,9.63,5.021z"/>
		<path fill="currentColor" d="M15.225,5.021c0.943,0.398,1.488,0.86,1.533,1.3c0.07,0.651-0.829,1.503-1.274,1.814
			c-0.368,0.254-0.46,0.758-0.206,1.127c0.158,0.229,0.411,0.35,0.669,0.35c0.158,0,0.319-0.046,0.459-0.144
			c0.221-0.152,2.148-1.537,1.966-3.313c-0.111-1.089-0.958-1.974-2.497-2.623c-0.402-0.182-0.855-0.572-0.85-0.732
			c0-0.004,0.092-0.489,1.821-1.151c0.419-0.161,0.627-0.63,0.469-1.048c-0.16-0.417-0.628-0.627-1.048-0.467
			c-1.896,0.725-2.832,1.582-2.863,2.618C13.362,4.135,15.016,4.926,15.225,5.021z"/>
		<path fill="currentColor" d="M20.667,5.021c0.942,0.398,1.486,0.86,1.533,1.3c0.069,0.651-0.829,1.503-1.274,1.814
			c-0.368,0.254-0.46,0.758-0.206,1.127c0.158,0.229,0.41,0.35,0.668,0.35c0.159,0,0.32-0.046,0.461-0.144
			c0.221-0.152,2.148-1.537,1.967-3.313c-0.112-1.089-0.959-1.974-2.498-2.623c-0.403-0.182-0.855-0.572-0.852-0.732
			c0-0.004,0.093-0.489,1.823-1.151c0.418-0.161,0.628-0.63,0.468-1.048c-0.16-0.417-0.628-0.627-1.049-0.467
			c-1.895,0.725-2.83,1.582-2.861,2.618C18.805,4.135,20.458,4.926,20.667,5.021z"/>
	</g>
</g>
</svg>
