<?xml version="1.0" encoding="utf-8"?>
<!-- Generator: Adobe Illustrator 19.0.1, SVG Export Plug-In . SVG Version: 6.00 Build 0)  -->
<svg version="1.1" xmlns="http://www.w3.org/2000/svg" xmlns:xlink="http://www.w3.org/1999/xlink" x="0px" y="0px"
	 viewBox="0 0 200.1 200.1" enable-background="new 0 0 200.1 200.1" xml:space="preserve">
<g>
	<path d="M100.1,0C44.9,0,0,44.9,0,100.1c0,55.2,44.9,100.1,100.1,100.1c55.2,0,100.1-44.9,100.1-100.1C200.1,44.9,155.2,0,100.1,0
		L100.1,0z M124.9,103.6h-16.3v58H84.5v-58H73.1V83.1h11.5V69.8c0-9.5,4.5-24.3,24.3-24.3l17.9,0.1v19.9h-13c-2.1,0-5.1,1.1-5.1,5.6
		v12.1h18.4L124.9,103.6z M124.9,103.6"/>
</g>
</svg>
