<?xml version="1.0" encoding="utf-8"?>
<!-- Generator: Adobe Illustrator 19.0.1, SVG Export Plug-In . SVG Version: 6.00 Build 0)  -->
<svg version="1.1" id="Слой_1" xmlns="http://www.w3.org/2000/svg" xmlns:xlink="http://www.w3.org/1999/xlink" x="0px" y="0px"
	 viewBox="0 0 173.3 167.5" enable-background="new 0 0 173.3 167.5" xml:space="preserve">
<g>
	<g>
		<path fill="#FFFFFF" d="M118.7,17H54.8c-2,0-2.8,1.2-2.8,3.2v131.4c0,2,0.8,3.4,2.8,3.4H76v-25.9c0-2,0.9-3.1,2.8-3.1H94
			c2,0,4,1.2,4,3.1V155h20.7c2,0,4.3-1.4,4.3-3.4V20.2C123,18.2,120.7,17,118.7,17z M98,111.4c0,2-1.6,3.6-3.6,3.6H79.6
			c-2,0-3.6-1.6-3.6-3.6v-3.9c0-2,1.6-3.6,3.6-3.6h14.9c2,0,3.6,1.6,3.6,3.6V111.4z M98,89.4c0,2-1.6,3.6-3.6,3.6H79.6
			c-2,0-3.6-1.6-3.6-3.6v-3.9c0-2,1.6-3.6,3.6-3.6h14.9c2,0,3.6,1.6,3.6,3.6V89.4z M98,67.4c0,2-1.6,3.6-3.6,3.6H79.6
			c-2,0-3.6-1.6-3.6-3.6v-3.9c0-2,1.6-3.6,3.6-3.6h14.9c2,0,3.6,1.6,3.6,3.6V67.4z M98,45.4c0,2-1.6,3.6-3.6,3.6H79.6
			c-2,0-3.6-1.6-3.6-3.6v-3.9c0-2,1.6-3.6,3.6-3.6h14.9c2,0,3.6,1.6,3.6,3.6V45.4z"/>
	</g>
	<g>
		<path fill="#FFFFFF" d="M162.2,62h-31.1c-2,0-3.1,1.5-3.1,3.5v85.3c0,2,1.2,4.3,3.1,4.3H142v-25.6c0-2,0.4-3.4,2.3-3.4h4.4
			c2,0,4.3,1.5,4.3,3.4V155h9.2c2,0,3.8-2.3,3.8-4.3V65.5C166,63.5,164.2,62,162.2,62z M154,113.4c0,2-1.6,3.6-3.6,3.6h-4.9
			c-2,0-3.6-1.6-3.6-3.6v-4.9c0-2,1.6-3.6,3.6-3.6h4.9c2,0,3.6,1.6,3.6,3.6V113.4z M154,92.4c0,2-1.6,3.6-3.6,3.6h-4.9
			c-2,0-3.6-1.6-3.6-3.6v-4.9c0-2,1.6-3.6,3.6-3.6h4.9c2,0,3.6,1.6,3.6,3.6V92.4z"/>
	</g>
	<g>
		<path fill="#FFFFFF" d="M42.3,40H11.2c-2,0-3.2,1.3-3.2,3.3v107.5c0,2,1.3,4.3,3.2,4.3H22v-24c0-2,0.2-3,2.2-3h4.4
			c2,0,3.5,1,3.5,3v24h10.3c2,0,4.7-2.3,4.7-4.3V43.3C47,41.3,44.3,40,42.3,40z M34,114.4c0,2-1.6,3.6-3.6,3.6h-4.9
			c-2,0-3.6-1.6-3.6-3.6v-4.9c0-2,1.6-3.6,3.6-3.6h4.9c2,0,3.6,1.6,3.6,3.6V114.4z M34,92.4c0,2-1.6,3.6-3.6,3.6h-4.9
			c-2,0-3.6-1.6-3.6-3.6v-4.9c0-2,1.6-3.6,3.6-3.6h4.9c2,0,3.6,1.6,3.6,3.6V92.4z M34,70.4c0,2-1.6,3.6-3.6,3.6h-4.9
			c-2,0-3.6-1.6-3.6-3.6v-4.9c0-2,1.6-3.6,3.6-3.6h4.9c2,0,3.6,1.6,3.6,3.6V70.4z"/>
	</g>
	<g>
		<line fill="#FFFFFF" x1="86.6" y1="0" x2="86.6" y2="18.2"/>
		<rect x="82.6" y="0" fill="#FFFFFF" width="8" height="18.2"/>
	</g>
	<g>
		<line fill="#FFFFFF" x1="0" y1="163.5" x2="173.3" y2="163.5"/>
		<rect y="159.5" fill="#FFFFFF" width="173.3" height="8"/>
	</g>
</g>
</svg>
