<?xml version="1.0" encoding="utf-8"?>
<!-- Generator: Adobe Illustrator 16.0.3, SVG Export Plug-In . SVG Version: 6.00 Build 0)  -->
<!DOCTYPE svg PUBLIC "-//W3C//DTD SVG 1.1//EN" "http://www.w3.org/Graphics/SVG/1.1/DTD/svg11.dtd">
<svg version="1.1" id="Layer_1" xmlns="http://www.w3.org/2000/svg" xmlns:xlink="http://www.w3.org/1999/xlink" x="0px" y="0px"
	 width="64px" height="64px" viewBox="0 0 64 64" enable-background="new 0 0 64 64" xml:space="preserve">
<g>
	<g id="Layer_1_110_">
		<g>
			<path fill="#FFFFFF" d="M23.92,21.703l-3.893-3.679c0.454-0.824,0.734-1.757,0.734-2.763c0-3.189-2.583-5.773-5.774-5.773
				c-3.19,0-5.777,2.583-5.777,5.773c0,3.19,2.587,5.775,5.777,5.775c1.125,0,2.166-0.335,3.053-0.891l3.888,3.675
				C22.517,23.042,23.18,22.331,23.92,21.703z"/>
			<path fill="#FFFFFF" d="M40.389,21.243l5.174-8.706c0.508,0.146,1.037,0.251,1.592,0.251c3.195,0,5.779-2.584,5.779-5.775
				c0-3.189-2.584-5.772-5.779-5.772c-3.191,0-5.773,2.582-5.773,5.772c0,1.583,0.639,3.015,1.672,4.059l-5.156,8.681
				C38.781,20.154,39.617,20.656,40.389,21.243z"/>
			<path fill="#FFFFFF" d="M58.229,28.531c-2.482,0-4.588,1.578-5.402,3.778L45.639,31.6c0,0.055,0.008,0.106,0.008,0.16
				c0,0.936-0.104,1.852-0.289,2.736l7.184,0.71c0.436,2.755,2.809,4.869,5.689,4.869c3.188,0,5.77-2.582,5.77-5.771
				C64,31.115,61.418,28.531,58.229,28.531z"/>
			<path fill="#FFFFFF" d="M38.396,51.232l-1.607-7.021c-0.906,0.316-1.852,0.542-2.834,0.655l1.607,7.021
				c-1.846,0.965-3.118,2.873-3.118,5.102c0,3.188,2.581,5.771,5.778,5.771c3.188,0,5.771-2.582,5.771-5.771
				C43.996,53.859,41.502,51.324,38.396,51.232z"/>
			<path fill="#FFFFFF" d="M19.549,34.547l-8.946,2.996c-1.032-1.576-2.809-2.623-4.832-2.623C2.582,34.92,0,37.504,0,40.691
				c0,3.193,2.582,5.777,5.772,5.777c3.188,0,5.776-2.584,5.776-5.777c0-0.133-0.028-0.256-0.039-0.387l8.975-3.005
				C20.08,36.428,19.757,35.51,19.549,34.547z"/>
			<circle fill="#FFFFFF" cx="32.45" cy="31.759" r="9.901"/>
		</g>
	</g>
</g>
</svg>
