<?xml version="1.0" encoding="utf-8"?>
<!-- Generator: Adobe Illustrator 19.0.1, SVG Export Plug-In . SVG Version: 6.00 Build 0)  -->
<svg version="1.1" id="Слой_1" xmlns="http://www.w3.org/2000/svg" xmlns:xlink="http://www.w3.org/1999/xlink" x="0px" y="0px"
	 viewBox="0 0 180 157" enable-background="new 0 0 180 157" xml:space="preserve">
<g>
	<path fill="#FFFFFF" d="M180,47.5c0-4.7-3.8-8.5-8.5-8.5H8.5C3.8,39,0,42.8,0,47.5v101c0,4.7,3.8,8.5,8.5,8.5h163
		c4.7,0,8.5-3.8,8.5-8.5V47.5z M121,107.7c0,1.6-1.6,2.3-3.3,2.3H106c-2.2,0-4,2.4-4,4.6v11.6c0,1.7-1.4,2.8-3.1,2.8H80.2
		c-2,0-4.2-1.3-4.2-3.3v-11c0-2.2-1.2-4.6-3.4-4.6H61.7c-2.1,0-3.7-1.1-3.7-3.2V87.6c0-1.8,1.3-3.6,3.1-3.6h11.5
		c2.2,0,3.4-1.4,3.4-3.6V69.1c0-1.9,2.1-4.1,4-4.1h19c1.7,0,3.1,2.1,3.1,3.8v11.6c0,2.2,1.8,3.6,4,3.6h11.2c2,0,3.8,1.9,3.8,3.9
		V107.7z"/>
	<path fill="none" stroke="#FFFFFF" stroke-width="15" stroke-linejoin="round" stroke-miterlimit="10" d="M58.3,33.4V12.3
		c0-2.7,2.2-4.8,4.8-4.8h54.1c2.7,0,4.8,2.2,4.8,4.8v21.1"/>
</g>
</svg>
