<?xml version="1.0" encoding="utf-8"?>
<!-- Generator: Adobe Illustrator 19.0.1, SVG Export Plug-In . SVG Version: 6.00 Build 0)  -->
<svg version="1.1" id="Слой_1" xmlns="http://www.w3.org/2000/svg" xmlns:xlink="http://www.w3.org/1999/xlink" x="0px" y="0px"
	 viewBox="0 0 138 167" enable-background="new 0 0 138 167" xml:space="preserve">
<g>
	<g>
		<path fill="#FFFFFF" d="M72.8,111.7c-6.4,0-11.5,5.2-11.5,11.5c0,6.4,5.2,11.5,11.5,11.5c6.4,0,11.5-5.2,11.5-11.5
			C84.4,116.9,79.2,111.7,72.8,111.7z M72.8,111.7c-6.4,0-11.5,5.2-11.5,11.5c0,6.4,5.2,11.5,11.5,11.5c6.4,0,11.5-5.2,11.5-11.5
			C84.4,116.9,79.2,111.7,72.8,111.7z M72.8,111.7c-6.4,0-11.5,5.2-11.5,11.5c0,6.4,5.2,11.5,11.5,11.5c6.4,0,11.5-5.2,11.5-11.5
			C84.4,116.9,79.2,111.7,72.8,111.7z M72.8,111.7c-6.4,0-11.5,5.2-11.5,11.5c0,6.4,5.2,11.5,11.5,11.5c6.4,0,11.5-5.2,11.5-11.5
			C84.4,116.9,79.2,111.7,72.8,111.7z M107.5,27H3.5c-2,0-3.5,1.6-3.5,3.5v132.9c0,2,1.6,3.5,3.5,3.5h103.9c2,0,3.5-1.6,3.5-3.5
			V30.5C111,28.6,109.4,27,107.5,27z M20.4,51.9H44c2.2,0,4,1.8,4,4s-1.8,4-4,4H20.4c-2.2,0-4-1.8-4-4S18.2,51.9,20.4,51.9z
			 M20.4,70.3h67.2c2.2,0,4,1.8,4,4c0,2.2-1.8,4-4,4H20.4c-2.2,0-4-1.8-4-4C16.4,72.1,18.2,70.3,20.4,70.3z M50.2,96.6H20.4
			c-2.2,0-4-1.8-4-4c0-2.2,1.8-4,4-4h29.8c2.2,0,4,1.8,4,4C54.2,94.8,52.4,96.6,50.2,96.6z M82,140.5l2.9,5.1
			c1.1,1.9,0.5,4.4-1.5,5.5c-0.6,0.4-1.3,0.5-2,0.5c-1.4,0-2.7-0.7-3.5-2l-4-6.8l-0.7-1.2c-0.1-0.1-0.1-0.3-0.2-0.4
			c0,0.1-0.1,0.3-0.2,0.4l-0.7,1.2l-3.9,6.8c-0.7,1.3-2.1,2-3.5,2c-0.7,0-1.4-0.2-2-0.5c-1.9-1.1-2.6-3.6-1.5-5.5l2.8-4.8
			c-6.5-3.2-11-9.9-11-17.5c0-10.8,8.8-19.5,19.5-19.5c10.8,0,19.5,8.8,19.5,19.5C92.4,130.7,88.2,137.2,82,140.5z M72.8,111.7
			c-6.4,0-11.5,5.2-11.5,11.5c0,6.4,5.2,11.5,11.5,11.5c6.4,0,11.5-5.2,11.5-11.5C84.4,116.9,79.2,111.7,72.8,111.7z M73.2,141.2
			V138C72.8,139,72.7,140.2,73.2,141.2z M72.8,111.7c-6.4,0-11.5,5.2-11.5,11.5c0,6.4,5.2,11.5,11.5,11.5c6.4,0,11.5-5.2,11.5-11.5
			C84.4,116.9,79.2,111.7,72.8,111.7z M72.8,111.7c-6.4,0-11.5,5.2-11.5,11.5c0,6.4,5.2,11.5,11.5,11.5c6.4,0,11.5-5.2,11.5-11.5
			C84.4,116.9,79.2,111.7,72.8,111.7z M72.8,111.7c-6.4,0-11.5,5.2-11.5,11.5c0,6.4,5.2,11.5,11.5,11.5c6.4,0,11.5-5.2,11.5-11.5
			C84.4,116.9,79.2,111.7,72.8,111.7z M72.8,111.7c-6.4,0-11.5,5.2-11.5,11.5c0,6.4,5.2,11.5,11.5,11.5c6.4,0,11.5-5.2,11.5-11.5
			C84.4,116.9,79.2,111.7,72.8,111.7z"/>
	</g>
	<g>
		<path fill="#FFFFFF" d="M134.3,0H30.5c-2,0-3.5,1.4-3.5,3.3V18h7V7h97v125h-11v7h14.3c2,0,3.8-1.2,3.8-3.1V3.3
			C138,1.4,136.2,0,134.3,0z"/>
	</g>
	<g>
		<path fill="#FFFFFF" d="M73.2,138v3.3C72.7,140.2,72.8,139,73.2,138z"/>
	</g>
	<g>
		<path fill="#FFFFFF" d="M73.2,138v3.3C72.7,140.2,72.8,139,73.2,138z"/>
	</g>
	<g>
		<path fill="#FFFFFF" d="M73.4,141.6c-0.1-0.1-0.1-0.3-0.2-0.4c0,0.1-0.1,0.3-0.2,0.4l-0.7,1.2c0.2,0,0.3,0,0.5,0
			c0.4,0,0.8,0,1.3-0.1L73.4,141.6z M73.2,141.2V138C72.8,139,72.7,140.2,73.2,141.2z"/>
	</g>
</g>
</svg>
