<?xml version="1.0" encoding="utf-8"?>
<!-- Generator: Adobe Illustrator 16.0.3, SVG Export Plug-In . SVG Version: 6.00 Build 0)  -->
<!DOCTYPE svg PUBLIC "-//W3C//DTD SVG 1.1//EN" "http://www.w3.org/Graphics/SVG/1.1/DTD/svg11.dtd">
<svg version="1.1" id="Layer_1" xmlns="http://www.w3.org/2000/svg" xmlns:xlink="http://www.w3.org/1999/xlink" x="0px" y="0px"
	 width="64px" height="64px" viewBox="0 0 64 64" enable-background="new 0 0 64 64" xml:space="preserve">
<path fill="#dc0227" d="M62.477,5.708H1.523C0.682,5.708,0,6.341,0,7.121v6.495v8.125v33.697c0,0.78,0.682,1.412,1.524,1.412h60.953
	c0.842,0,1.523-0.632,1.523-1.412V21.74v-8.125V7.121C64,6.341,63.318,5.708,62.477,5.708z M35.611,52.729H4.724V33.512h30.887
	V52.729z M60.266,17.638H4.622V9.811h55.644V17.638z M48.988,13.725c0-0.898,0.82-1.625,1.832-1.625s1.832,0.728,1.832,1.625
	c0,0.897-0.82,1.624-1.832,1.624C49.809,15.349,48.988,14.622,48.988,13.725z M54.92,13.725c0-0.898,0.818-1.625,1.832-1.625
	c1.01,0,1.83,0.728,1.83,1.625c0,0.897-0.82,1.624-1.83,1.624C55.738,15.349,54.92,14.622,54.92,13.725z M32.347,38.882H7.988
	v-2.826h24.359V38.882z M32.347,44.532H7.988v-2.826h24.359V44.532z M32.347,50.185H7.988v-2.825h24.359V50.185z"/>
</svg>
