<?xml version="1.0" encoding="utf-8"?>
<!-- Generator: Adobe Illustrator 19.0.1, SVG Export Plug-In . SVG Version: 6.00 Build 0)  -->
<svg version="1.1" id="Слой_1" xmlns="http://www.w3.org/2000/svg" xmlns:xlink="http://www.w3.org/1999/xlink" x="0px" y="0px"
	 viewBox="0 0 162.6 162.8" enable-background="new 0 0 162.6 162.8" xml:space="preserve">
<g>
	<g>
		<defs>
			<rect id="SVGID_1_" width="162.6" height="162.8"/>
		</defs>
		<clipPath id="SVGID_2_">
			<use xlink:href="#SVGID_1_"  overflow="visible"/>
		</clipPath>
		<path clip-path="url(#SVGID_2_)" fill="#FFFFFF" d="M62.2,100.1c14.5,14.4,31.4,28.2,38,21.6c9.5-9.5,15.3-17.8,36.3-1.1
			c21,16.8,5,28-4.2,37.3c-10.6,10.7-50.2,0.7-89.5-38.2C3.5,80.6-6.7,41.1,3.9,30.4c9.2-9.2,20.3-25.4,37.2-4.5
			c16.9,20.9,8.7,26.8-0.8,36.3C33.7,68.9,47.6,85.6,62.2,100.1L62.2,100.1z M83.3,31.2c0,0-4.4-0.7-7.5,2.4c-3.2,3.2-3.3,8.6,0,12
			c2,2,4.7,2.4,4.7,2.4c5.4,1,13.6,2.7,22.3,11.4c8.7,8.7,10.4,16.8,11.4,22.3c0,0,0.4,2.8,2.4,4.8c3.3,3.3,8.8,3.2,11.9,0
			c3.1-3.1,2.4-7.5,2.4-7.5c-1.7-11-7-22.4-16.2-31.5C105.7,38.2,94.2,32.9,83.3,31.2L83.3,31.2z M124.4,37.7
			c15.9,15.9,22.7,34,20.5,48.6c0,0-0.8,4.6,2.3,7.7c3.4,3.4,8.8,3.2,12,0c2-2,2.5-5.4,2.5-5.4c1.8-12.6-0.5-38.1-25.3-62.9
			C111.6,1,86.2-1.3,73.5,0.5c0,0-3.3,0.4-5.4,2.5c-3.2,3.2-3.4,8.6,0,12c3,3,7.7,2.3,7.7,2.3C90.5,15,108.5,21.8,124.4,37.7
			L124.4,37.7z M124.4,37.7"/>
	</g>
</g>
</svg>
