<?xml version="1.0" encoding="utf-8"?>
<!-- Generator: Adobe Illustrator 16.0.3, SVG Export Plug-In . SVG Version: 6.00 Build 0)  -->
<!DOCTYPE svg PUBLIC "-//W3C//DTD SVG 1.1//EN" "http://www.w3.org/Graphics/SVG/1.1/DTD/svg11.dtd">
<svg version="1.1" id="Layer_1" xmlns="http://www.w3.org/2000/svg" xmlns:xlink="http://www.w3.org/1999/xlink" x="0px" y="0px"
	 width="128px" height="128px" viewBox="0 0 128 128" enable-background="new 0 0 128 128" xml:space="preserve">
<path fill="#FFFFFF" d="M98.551,94.825c-6.445-6.257-14.308-10.669-22.77-12.779c-0.215-0.119-0.456-0.18-0.704-0.18H74.31
	c-0.02,0-0.04,0.005-0.06,0.007l3.474,7.528l-7.245,13.203h27.05c0.811,0,1.468-0.656,1.468-1.473v-5.25
	C98.996,95.481,98.835,95.102,98.551,94.825z"/>
<path fill="#FFFFFF" d="M53.78,81.871c-0.031,0-0.056-0.008-0.084-0.008h-0.557c-0.113,0-0.226,0.014-0.337,0.04
	c-8.683,2.055-16.755,6.522-23.342,12.922c-0.287,0.276-0.447,0.656-0.447,1.057v5.25c0,0.816,0.658,1.473,1.47,1.473h26.867
	l-7.111-13.039L53.78,81.871z"/>
<path fill="#FFFFFF" d="M63.534,69.48c-0.826,0-1.536,0.465-1.905,1.145c-8.647-0.893-11.408-8.405-11.408-8.405
	c0.011,0.152,0.011,0.152,0,0c-0.017,0-0.03,0-0.048,0c-1.494,0-2.704-1.282-2.704-2.864c0-1.17,0.659-2.172,1.602-2.619
	c0,0,4.09-8.095,6.112-17.582c0,0,1.908,14.906,23.779,17.498c-0.009,0.027-0.015,0.057-0.023,0.084
	c0.942,0.447,1.6,1.449,1.6,2.619c0,1.582-1.212,2.864-2.704,2.864c-0.015,0-0.031,0-0.046,0c-0.315,4.236-2.324,8.476-5.313,11.384
	v3.625c10.543-0.485,17.731-5.282,17.731-5.282c-9.929-6.066-1.404-26.472-12.354-36.014s-13.848-3.36-13.848-3.36
	s-2.896-6.181-13.847,3.36c-10.95,9.542-2.425,29.945-12.354,36.012c0,0,7.137,4.76,17.615,5.277v-3.744
	c-1.62-1.609-2.931-3.617-3.844-5.794c1.964,2.136,5.112,4.323,9.951,4.806c0.327,0.787,1.103,1.34,2.009,1.34
	c1.2,0,2.175-0.975,2.175-2.176C65.709,70.455,64.734,69.48,63.534,69.48z"/>
</svg>
