<?xml version="1.0" encoding="utf-8"?>
<!-- Generator: Adobe Illustrator 19.0.0, SVG Export Plug-In . SVG Version: 6.00 Build 0)  -->
<svg version="1.1" id="Layer_1" xmlns="http://www.w3.org/2000/svg" xmlns:xlink="http://www.w3.org/1999/xlink" x="0px" y="0px"
	 viewBox="-356 234.3 128 128" enable-background="new -356 234.3 128 128" xml:space="preserve">
<path fill="#DC0227" d="M-257.4,329.1c-6.4-6.3-14.3-10.7-22.8-12.8c-0.2-0.1-0.5-0.2-0.7-0.2h-0.8c0,0,0,0-0.1,0l3.5,7.5l-7.2,13.2
	h27c0.8,0,1.5-0.7,1.5-1.5v-5.3C-257,329.8-257.2,329.4-257.4,329.1z"/>
<path fill="#DC0227" d="M-302.2,316.2C-302.3,316.2-302.3,316.1-302.2,316.2l-0.6,0c-0.1,0-0.2,0-0.3,0c-8.7,2.1-16.8,6.5-23.3,12.9
	c-0.3,0.3-0.4,0.7-0.4,1.1v5.3c0,0.8,0.7,1.5,1.5,1.5h26.9l-7.1-13L-302.2,316.2z"/>
<path fill="#DC0227" d="M-292.5,303.8c-0.8,0-1.5,0.5-1.9,1.1c-8.6-0.9-11.4-8.4-11.4-8.4c0,0.2,0,0.2,0,0c0,0,0,0,0,0
	c-1.5,0-2.7-1.3-2.7-2.9c0-1.2,0.7-2.2,1.6-2.6c0,0,4.1-8.1,6.1-17.6c0,0,1.9,14.9,23.8,17.5c0,0,0,0.1,0,0.1
	c0.9,0.4,1.6,1.4,1.6,2.6c0,1.6-1.2,2.9-2.7,2.9c0,0,0,0,0,0c-0.3,4.2-2.3,8.5-5.3,11.4v3.6c10.5-0.5,17.7-5.3,17.7-5.3
	c-9.9-6.1-1.4-26.5-12.4-36c-11-9.5-13.8-3.4-13.8-3.4s-2.9-6.2-13.8,3.4c-10.9,9.5-2.4,29.9-12.4,36c0,0,7.1,4.8,17.6,5.3v-3.7
	c-1.6-1.6-2.9-3.6-3.8-5.8c2,2.1,5.1,4.3,10,4.8c0.3,0.8,1.1,1.3,2,1.3c1.2,0,2.2-1,2.2-2.2C-290.3,304.7-291.3,303.8-292.5,303.8z"
	/>
</svg>
