<?xml version="1.0" encoding="utf-8"?>
<!-- Generator: Adobe Illustrator 19.0.1, SVG Export Plug-In . SVG Version: 6.00 Build 0)  -->
<svg version="1.1" xmlns="http://www.w3.org/2000/svg" xmlns:xlink="http://www.w3.org/1999/xlink" x="0px" y="0px"
	 viewBox="0 0 195.7 195.7" enable-background="new 0 0 195.7 195.7" xml:space="preserve">
<g>
	<path fill-rule="evenodd" clip-rule="evenodd" d="M97.8,0C43.8,0,0,43.8,0,97.8c0,54,43.8,97.8,97.8,97.8c54,0,97.8-43.8,97.8-97.8
		C195.7,43.8,151.9,0,97.8,0L97.8,0z M147.5,108.4c4.6,4.5,9.4,8.6,13.5,13.6c1.8,2.2,3.5,4.4,4.8,7c1.9,3.6,0.2,7.6-3.1,7.8l-20,0
		c-5.2,0.4-9.3-1.7-12.8-5.2c-2.8-2.8-5.3-5.8-8-8.8c-1.1-1.2-2.2-2.3-3.6-3.2c-2.7-1.8-5.1-1.2-6.7,1.6c-1.6,2.9-2,6.1-2.1,9.4
		c-0.2,4.7-1.6,6-6.4,6.2c-10.1,0.5-19.8-1.1-28.7-6.2c-7.9-4.5-14-10.9-19.3-18.1C44.8,98.4,36.8,83,29.7,67.2
		c-1.6-3.6-0.4-5.5,3.5-5.6c6.5-0.1,13.1-0.1,19.6,0c2.7,0,4.4,1.6,5.4,4.1c3.5,8.7,7.9,17,13.3,24.7c1.4,2,2.9,4.1,5,5.5
		c2.3,1.6,4.1,1.1,5.2-1.5c0.7-1.6,1-3.4,1.2-5.2c0.5-6.1,0.6-12.1-0.3-18.1c-0.6-3.8-2.7-6.2-6.4-6.9c-1.9-0.4-1.6-1.1-0.7-2.2
		c1.6-1.9,3.1-3.1,6.1-3.1h22.7c3.6,0.7,4.4,2.3,4.8,5.9l0,25.2c0,1.4,0.7,5.5,3.2,6.4c2,0.7,3.3-0.9,4.5-2.2
		c5.4-5.8,9.3-12.6,12.8-19.6c1.5-3.1,2.9-6.3,4.1-9.5c0.9-2.4,2.4-3.6,5.1-3.5l21.8,0c0.6,0,1.3,0,1.9,0.1c3.7,0.6,4.7,2.2,3.5,5.8
		c-1.8,5.6-5.3,10.3-8.7,15c-3.6,5-7.5,9.9-11.1,15C143.1,102.1,143.3,104.4,147.5,108.4L147.5,108.4z M147.5,108.4"/>
</g>
</svg>
